<?xml version="1.0" standalone="no"?>
<!DOCTYPE svg PUBLIC "-//W3C//DTD SVG 20010904//EN"
 "http://www.w3.org/TR/2001/REC-SVG-20010904/DTD/svg10.dtd">
<svg version="1.0" xmlns="http://www.w3.org/2000/svg"
 width="500.000000pt" height="500.000000pt" viewBox="0 0 500.000000 500.000000"
 preserveAspectRatio="xMidYMid meet">

<g transform="translate(0.000000,500.000000) scale(0.100000,-0.100000)"
fill="none" stroke="none">
<path d="M3985 4478 c-23 -142 -49 -588 -61 -1050 l-7 -276 -116 -53 c-632
-285 -1392 -664 -1901 -949 -161 -89 -387 -227 -552 -336 l-158 -103 0 57 c-1
357 -42 1119 -76 1392 -23 191 -43 292 -56 284 -7 -5 -8 -167 -3 -530 4 -288
4 -699 0 -914 l-8 -390 -96 -83 c-281 -240 -422 -440 -460 -654 -31 -166 55
-336 186 -374 74 -21 125 -16 197 20 167 82 249 277 291 693 8 83 15 181 15
218 l0 67 107 75 c465 326 1055 659 2408 1363 83 43 166 87 185 97 l35 18 6
-487 c10 -713 38 -929 74 -571 18 180 33 475 41 841 l7 284 171 93 c214 117
306 174 285 178 -14 3 -260 -92 -391 -152 -32 -14 -58 -25 -58 -23 -1 1 -3
200 -5 442 -6 539 -23 855 -46 855 -4 0 -11 -15 -14 -32z m-2965 -3215 c-37
-326 -82 -473 -173 -568 -37 -38 -49 -45 -83 -45 -161 0 -149 247 23 473 55
72 231 252 239 244 3 -3 0 -49 -6 -104z"/>
<path d="M3794 3845 c-48 -21 -94 -80 -94 -119 0 -49 19 -60 69 -40 59 23 101
75 101 123 0 52 -19 61 -76 36z"/>
<path d="M3719 3595 c-72 -37 -91 -60 -157 -191 -93 -184 -96 -314 -9 -314 75
0 208 94 256 181 l25 44 -52 -47 c-57 -51 -103 -68 -128 -47 -28 23 -1 106 97
302 27 53 49 100 49 102 0 9 -16 4 -81 -30z"/>
<path d="M3240 3362 c-35 -17 -88 -60 -147 -119 l-93 -92 25 49 c14 28 21 50
15 50 -6 0 -37 -13 -69 -30 -49 -24 -65 -40 -94 -87 -83 -138 -157 -317 -157
-380 0 -16 6 -38 14 -48 12 -16 19 -18 52 -10 38 10 40 13 66 90 39 112 88
232 117 284 51 92 198 216 231 196 17 -11 11 -34 -40 -148 -85 -194 -71 -260
47 -216 44 17 75 39 129 93 39 39 73 82 77 94 4 19 -3 15 -40 -22 -64 -65
-113 -74 -113 -20 0 13 25 77 55 142 30 65 55 132 55 148 0 61 -43 69 -130 26z"/>
<path d="M2516 3000 c-62 -31 -106 -67 -185 -148 l-73 -77 26 49 c14 27 24 52
21 55 -4 3 -36 -10 -73 -29 -63 -33 -68 -39 -117 -127 -122 -219 -165 -403
-93 -403 53 0 68 20 109 140 58 171 108 267 182 343 88 91 157 121 157 69 0
-10 -23 -69 -50 -131 -44 -96 -51 -120 -48 -164 3 -50 4 -52 35 -55 64 -6 177
69 245 162 42 58 34 64 -18 12 -63 -64 -114 -74 -114 -23 0 12 25 76 56 142
55 120 68 180 43 196 -22 14 -61 10 -103 -11z"/>
<path d="M1863 2667 c-40 -20 -72 -46 -87 -68 -24 -35 -26 -36 -76 -31 -102
10 -262 -98 -358 -242 -101 -151 -122 -307 -45 -337 66 -25 208 48 285 146 40
51 43 53 56 34 38 -54 186 24 274 145 41 57 34 66 -14 17 -69 -70 -118 -78
-118 -20 0 37 62 187 126 307 26 48 39 82 32 82 -7 -1 -41 -15 -75 -33z m-143
-152 c0 -9 -9 -33 -20 -54 -29 -59 -58 -138 -70 -197 -25 -121 -193 -229 -216
-138 -27 105 91 323 207 385 43 23 99 25 99 4z"/>
</g>
    <style>
        path { fill: #000; }
        @media (prefers-color-scheme: dark) {
        path { fill: #FFF; }
        }
    </style>
</svg>
